<?xml version="1.0" encoding="UTF-8"?>
<svg xmlns="http://www.w3.org/2000/svg" xmlns:xlink="http://www.w3.org/1999/xlink" width="512" height="512" viewBox="0 0 58 51" version="1.1"><!-- Generator: Sketch 51.3 (57544) - http://www.bohemiancoding.com/sketch --><title>005 - Pistons</title><desc>Created with Sketch.</desc><defs/><g id="Page-1" stroke="none" stroke-width="1" fill="none" fill-rule="evenodd"><g id="005---Pistons" transform="translate(-1.000000, 0.000000)" fill-rule="nonzero"><path d="M51.5,38.69 C51.8899779,38.2969921 51.8899779,37.6630079 51.5,37.27 L50.08,35.86 C49.6899625,35.4722764 49.0600375,35.4722764 48.67,35.86 L47.75,36.78 C47.109936,36.4126752 46.4140738,36.1525714 45.69,36.01 C42.88,35.41 38.16,32.15 34.04,28.87 L30,25.47 C28.79,24.4 27.77,23.45 27.05,22.73 L23.64,19.31 L23.63,19.3 C23.44,19.38 22.2,18.2 22,18.29 C21.8784312,18.3399472 21.7613408,18.4001651 21.65,18.47 C21.56,18.52 21.48,18.57 21.39,18.62 C21.26,18.71 21.13,18.8 21.01,18.89 L20.98,18.92 C20.9416381,18.9442543 20.904894,18.9709773 20.87,19 C20.8450282,19.0142446 20.8215736,19.0309979 20.8,19.05 C20.5304008,19.2796008 20.2796008,19.5304008 20.05,19.8 C20.03,19.82 20.02,19.84 20,19.86 C19.97,19.9 19.95,19.94 19.92,19.98 C19.91,19.98 19.9,20 19.89,20.01 C19.8,20.13 19.71,20.26 19.62,20.39 C19.57,20.48 19.52,20.56 19.47,20.65 C19.3994348,20.759389 19.342354,20.8769084 19.3,21 C19.2,21.2 20.17,22.65 20.09,22.84 L20.09,22.85 L20.1,22.85 L23.52,26.26 C24.17,26.91 25.02,27.81 25.96,28.87 L30,33.69 C33.17,37.71 36.22,42.19 36.8,44.9 C36.9470868,45.6227869 37.2069277,46.3179456 37.57,46.96 L36.65,47.88 C36.2622764,48.2700375 36.2622764,48.8999625 36.65,49.29 L38.06,50.71 C38.4530079,51.0999779 39.0869921,51.0999779 39.48,50.71 L40.36,49.82 C42.8286105,51.2613808 45.9031953,51.1682115 48.28,49.58 C48.5541188,49.3997241 48.8117859,49.1955982 49.05,48.97 C49.1836396,48.8682963 49.3105705,48.7580669 49.43,48.64 C49.7801679,48.2883119 50.0950075,47.9031358 50.37,47.49 C51.9582115,45.1131953 52.0513808,42.0386105 50.61,39.57 L51.5,38.69 Z M46.6,45.81 C45.2331281,47.1767324 43.0171156,47.176657 41.6503367,45.8098316 C40.2835578,44.4430063 40.2835578,42.2269937 41.6503367,40.8601684 C43.0171156,39.493343 45.2331281,39.4932676 46.6,40.86 C47.9598676,42.2298121 47.9598676,44.4401879 46.6,45.81 Z" id="Shape" fill="#2C3E50"/><path d="M40.7,21 C40.657646,20.8769084 40.6005652,20.759389 40.53,20.65 C40.48,20.56 40.43,20.48 40.38,20.39 C40.29,20.26 40.2,20.13 40.11,20.01 C40.1,20 40.09,19.98 40.08,19.98 C40.05,19.94 40.03,19.9 40,19.86 C39.98,19.84 39.97,19.82 39.95,19.8 C39.7203992,19.5304008 39.4695992,19.2796008 39.2,19.05 C39.1784264,19.0309979 39.1549718,19.0142446 39.13,19 C39.095106,18.9709773 39.0583619,18.9442543 39.02,18.92 L38.99,18.89 C38.87,18.8 38.74,18.71 38.61,18.62 C38.52,18.57 38.44,18.52 38.35,18.47 C38.2386592,18.4001651 38.1215688,18.3399472 38,18.29 C37.8,18.2 36.56,19.38 36.37,19.3 L36.36,19.31 L32.95,22.73 C29.47,26.21 19.12,34.98 14.31,36.01 C13.5859262,36.1525714 12.890064,36.4126752 12.25,36.78 L11.33,35.86 C10.9399625,35.4722764 10.3100375,35.4722764 9.92,35.86 L8.5,37.27 C8.11002213,37.6630079 8.11002213,38.2969921 8.5,38.69 L9.39,39.57 C7.94861923,42.0386105 8.04178846,45.1131953 9.63,47.49 C9.90499249,47.9031358 10.2198321,48.2883119 10.57,48.64 C10.9242761,48.9872892 11.3091704,49.3018985 11.72,49.58 C14.0968047,51.1682115 17.1713895,51.2613808 19.64,49.82 L20.52,50.71 C20.9130079,51.0999779 21.5469921,51.0999779 21.94,50.71 L23.35,49.29 C23.7377236,48.8999625 23.7377236,48.2700375 23.35,47.88 L22.43,46.96 C22.7930723,46.3179456 23.0529132,45.6227869 23.2,44.9 C24.23,40.09 33,29.74 36.48,26.26 L39.9,22.85 L39.91,22.85 L39.91,22.84 C39.83,22.65 40.8,21.2 40.7,21 Z M18.35,45.81 C16.9831281,47.1767324 14.7671156,47.176657 13.4003367,45.8098316 C12.0335578,44.4430063 12.0335578,42.2269937 13.4003367,40.8601684 C14.7671156,39.493343 16.9831281,39.4932676 18.35,40.86 C19.7098676,42.2298121 19.7098676,44.4401879 18.35,45.81 Z" id="Shape" fill="#285680"/><path d="M28.16,18.18 L27.8,18.54 C27.3492704,18.9910816 26.7099063,19.1992467 26.08,19.1 C24.3778816,18.8688829 22.665526,19.4462782 21.4509021,20.6609021 C20.2362782,21.875526 19.6588829,23.5878816 19.89,25.29 C19.9892467,25.9199063 19.7810816,26.5592704 19.33,27.01 L18.97,27.37 C18.5948635,27.7455541 18.0858185,27.9565733 17.555,27.9565733 C17.0241815,27.9565733 16.5151365,27.7455541 16.14,27.37 L6.25,17.48 L10,10 L18.27,5.45 L28.16,15.35 C28.5355541,15.7251365 28.7465733,16.2341815 28.7465733,16.765 C28.7465733,17.2958185 28.5355541,17.8048635 28.16,18.18 Z" id="Shape" fill="#4482C3"/><circle id="Oval" fill="#2C3E50" cx="16.849" cy="16.059" r="2.5"/><path d="M58.71,12.52 L56.59,14.64 L49,11 L44.56,2.62 L46.69,0.5 C47.0800375,0.112276405 47.7099625,0.112276405 48.1,0.5 L58.71,11.11 C59.0977236,11.5000375 59.0977236,12.1299625 58.71,12.52 Z" id="Shape" fill="#4482C3"/><path d="M53.76,17.47 L43.86,27.37 C43.4848635,27.7455541 42.9758185,27.9565733 42.445,27.9565733 C41.9141815,27.9565733 41.4051365,27.7455541 41.03,27.37 L40.67,27.01 C40.2189184,26.5592704 40.0107533,25.9199063 40.11,25.29 C40.3411171,23.5878816 39.7637218,21.875526 38.5490979,20.6609021 C37.334474,19.4462782 35.6221184,18.8688829 33.92,19.1 C33.2900937,19.1992467 32.6507296,18.9910816 32.2,18.54 L31.84,18.18 C31.4644459,17.8048635 31.2534267,17.2958185 31.2534267,16.765 C31.2534267,16.2341815 31.4644459,15.7251365 31.84,15.35 L41.74,5.45 L49.219,9.562 L53.76,17.47 Z" id="Shape" fill="#4482C3"/><rect id="Rectangle-path" fill="#285680" transform="translate(49.162980, 10.045077) rotate(-44.999000) translate(-49.162980, -10.045077) " x="47.1634797" y="1.5440768" width="3.999" height="17.002"/><circle id="Oval" fill="#2C3E50" cx="43.151" cy="16.059" r="2.5"/><path d="M15.44,2.62 L12,11 L3.41,14.64 L1.29,12.52 C0.902276405,12.1299625 0.902276405,11.5000375 1.29,11.11 L11.9,0.5 C12.2900375,0.112276405 12.9199625,0.112276405 13.31,0.5 L15.44,2.62 Z" id="Shape" fill="#4482C3"/><polygon id="Shape" fill="#285680" points="18.27 5.45 6.25 17.48 3.41 14.64 15.44 2.62"/></g></g></svg>
